<svg width="165" height="35" viewBox="0 0 165 35" fill="none" xmlns="http://www.w3.org/2000/svg">
<path fill-rule="evenodd" clip-rule="evenodd" d="M69.7009 11.8607C69 13.1412 69 14.6859 69 17.7753V19.8288C69 25.0948 69 27.728 70.5816 29.3639C72.1632 31 74.7088 31 79.8 31H85.2C90.2911 31 92.8368 31 94.4183 29.3639C96 27.728 96 25.0948 96 19.8288V17.7753C96 14.6859 96 13.1412 95.2991 11.8607C94.5982 10.5802 93.3177 9.78544 90.7566 8.19596L88.0566 6.52027C85.3493 4.84009 83.9957 4 82.5 4C81.0043 4 79.6507 4.84009 76.9434 6.52027L74.2434 8.19598C71.6824 9.78544 70.4018 10.5802 69.7009 11.8607Z" fill="white"/>
<path d="M77.322 24V11.688H79.68V24H77.322ZM75.288 17.376V15.306H81.714V17.376H75.288ZM86.9152 24.18C86.0392 24.18 85.2472 23.982 84.5392 23.586C83.8432 23.178 83.2852 22.632 82.8652 21.948C82.4572 21.252 82.2532 20.478 82.2532 19.626C82.2532 18.774 82.4572 18.012 82.8652 17.34C83.2732 16.656 83.8312 16.116 84.5392 15.72C85.2472 15.312 86.0332 15.108 86.8972 15.108C87.7852 15.108 88.5772 15.312 89.2732 15.72C89.9812 16.116 90.5392 16.656 90.9472 17.34C91.3552 18.012 91.5592 18.774 91.5592 19.626C91.5592 20.478 91.3552 21.252 90.9472 21.948C90.5392 22.632 89.9812 23.178 89.2732 23.586C88.5772 23.982 87.7912 24.18 86.9152 24.18ZM86.8972 21.984C87.3412 21.984 87.7312 21.888 88.0672 21.696C88.4152 21.492 88.6792 21.216 88.8592 20.868C89.0512 20.508 89.1472 20.1 89.1472 19.644C89.1472 19.188 89.0512 18.786 88.8592 18.438C88.6672 18.09 88.4032 17.82 88.0672 17.628C87.7312 17.424 87.3412 17.322 86.8972 17.322C86.4652 17.322 86.0812 17.424 85.7452 17.628C85.4092 17.82 85.1452 18.09 84.9532 18.438C84.7612 18.786 84.6652 19.188 84.6652 19.644C84.6652 20.1 84.7612 20.508 84.9532 20.868C85.1452 21.216 85.4092 21.492 85.7452 21.696C86.0812 21.888 86.4652 21.984 86.8972 21.984Z" fill="black"/>
<path d="M14.816 28V24.892H19.94C20.8547 24.892 21.564 24.612 22.068 24.052C22.5907 23.492 22.852 22.8293 22.852 22.064C22.852 21.5413 22.74 21.0653 22.516 20.636C22.292 20.2067 21.956 19.8707 21.508 19.628C21.0787 19.3667 20.556 19.236 19.94 19.236H14.816V16.156H19.52C20.304 16.156 20.9293 15.96 21.396 15.568C21.8813 15.176 22.124 14.588 22.124 13.804C22.124 13.0013 21.8813 12.404 21.396 12.012C20.9293 11.62 20.304 11.424 19.52 11.424H14.816V8.316H19.968C21.2747 8.316 22.3667 8.55867 23.244 9.044C24.14 9.51067 24.812 10.136 25.26 10.92C25.708 11.6853 25.932 12.5253 25.932 13.44C25.932 14.56 25.5867 15.5307 24.896 16.352C24.224 17.1547 23.2347 17.752 21.928 18.144L22.096 16.912C23.552 17.3227 24.672 18.004 25.456 18.956C26.2587 19.8893 26.66 21.0187 26.66 22.344C26.66 23.3893 26.3987 24.3413 25.876 25.2C25.372 26.04 24.6253 26.7213 23.636 27.244C22.6653 27.748 21.48 28 20.08 28H14.816ZM12.016 28V8.316H15.796V28H12.016ZM35.7561 28.28C34.3374 28.28 33.0774 27.9813 31.9761 27.384C30.8747 26.768 29.9974 25.928 29.3441 24.864C28.7094 23.8 28.3921 22.5867 28.3921 21.224C28.3921 19.88 28.7001 18.6853 29.3161 17.64C29.9507 16.576 30.8094 15.736 31.8921 15.12C32.9747 14.4853 34.1787 14.168 35.5041 14.168C36.8107 14.168 37.9587 14.4667 38.9481 15.064C39.9561 15.6427 40.7401 16.4453 41.3001 17.472C41.8787 18.48 42.1681 19.628 42.1681 20.916C42.1681 21.1587 42.1494 21.4107 42.1121 21.672C42.0934 21.9147 42.0467 22.1947 41.9721 22.512L30.6041 22.54V19.796L40.2641 19.768L38.7801 20.916C38.7427 20.1133 38.5934 19.4413 38.3321 18.9C38.0894 18.3587 37.7254 17.948 37.2401 17.668C36.7734 17.3693 36.1947 17.22 35.5041 17.22C34.7761 17.22 34.1414 17.388 33.6001 17.724C33.0587 18.0413 32.6387 18.4987 32.3401 19.096C32.0601 19.6747 31.9201 20.3653 31.9201 21.168C31.9201 21.9893 32.0694 22.708 32.3681 23.324C32.6854 23.9213 33.1334 24.388 33.7121 24.724C34.2907 25.0413 34.9627 25.2 35.7281 25.2C36.4187 25.2 37.0441 25.088 37.6041 24.864C38.1641 24.6213 38.6494 24.2667 39.0601 23.8L41.2161 25.956C40.5627 26.7213 39.7601 27.3 38.8081 27.692C37.8747 28.084 36.8574 28.28 35.7561 28.28ZM49.0845 28.308C48.3192 28.308 47.5632 28.2053 46.8165 28C46.0885 27.7947 45.4165 27.5147 44.8005 27.16C44.1845 26.7867 43.6525 26.3387 43.2045 25.816L45.3885 23.604C45.8552 24.1267 46.3965 24.5187 47.0125 24.78C47.6285 25.0413 48.3098 25.172 49.0565 25.172C49.6538 25.172 50.1018 25.088 50.4005 24.92C50.7178 24.752 50.8765 24.5 50.8765 24.164C50.8765 23.7907 50.7085 23.5013 50.3725 23.296C50.0552 23.0907 49.6352 22.9227 49.1125 22.792C48.5898 22.6427 48.0392 22.484 47.4605 22.316C46.9005 22.1293 46.3592 21.896 45.8365 21.616C45.3138 21.3173 44.8845 20.916 44.5485 20.412C44.2312 19.8893 44.0725 19.2173 44.0725 18.396C44.0725 17.5373 44.2778 16.7907 44.6885 16.156C45.1178 15.5213 45.7245 15.0267 46.5085 14.672C47.2925 14.3173 48.2165 14.14 49.2805 14.14C50.4005 14.14 51.4085 14.336 52.3045 14.728C53.2192 15.12 53.9752 15.708 54.5725 16.492L52.3605 18.704C51.9498 18.2 51.4832 17.836 50.9605 17.612C50.4565 17.388 49.9058 17.276 49.3085 17.276C48.7672 17.276 48.3472 17.36 48.0485 17.528C47.7685 17.696 47.6285 17.9293 47.6285 18.228C47.6285 18.564 47.7872 18.8253 48.1045 19.012C48.4405 19.1987 48.8698 19.3667 49.3925 19.516C49.9152 19.6467 50.4565 19.8053 51.0165 19.992C51.5952 20.16 52.1365 20.4027 52.6405 20.72C53.1632 21.0373 53.5832 21.4573 53.9005 21.98C54.2365 22.5027 54.4045 23.1747 54.4045 23.996C54.4045 25.3213 53.9285 26.376 52.9765 27.16C52.0245 27.9253 50.7272 28.308 49.0845 28.308ZM58.8659 28V8.848H62.5339V28H58.8659ZM55.7019 17.696V14.476H65.6979V17.696H55.7019Z" fill="white"/>
<path d="M105.728 28.28C104.141 28.28 102.779 28.0093 101.64 27.468C100.52 26.9267 99.5027 26.1147 98.588 25.032L101.108 22.512C101.687 23.2773 102.359 23.8747 103.124 24.304C103.889 24.7147 104.823 24.92 105.924 24.92C106.913 24.92 107.697 24.724 108.276 24.332C108.873 23.94 109.172 23.3987 109.172 22.708C109.172 22.1107 109.004 21.6253 108.668 21.252C108.332 20.8787 107.884 20.5613 107.324 20.3C106.783 20.0387 106.176 19.8053 105.504 19.6C104.851 19.376 104.188 19.124 103.516 18.844C102.863 18.564 102.256 18.2187 101.696 17.808C101.155 17.3787 100.716 16.8373 100.38 16.184C100.044 15.512 99.876 14.672 99.876 13.664C99.876 12.4693 100.165 11.452 100.744 10.612C101.323 9.772 102.116 9.128 103.124 8.68C104.132 8.232 105.271 8.008 106.54 8.008C107.884 8.008 109.097 8.26 110.18 8.764C111.263 9.268 112.149 9.92133 112.84 10.724L110.32 13.244C109.741 12.6093 109.144 12.1427 108.528 11.844C107.931 11.5453 107.249 11.396 106.484 11.396C105.607 11.396 104.916 11.564 104.412 11.9C103.908 12.236 103.656 12.7213 103.656 13.356C103.656 13.8973 103.824 14.336 104.16 14.672C104.496 15.008 104.935 15.2973 105.476 15.54C106.036 15.7827 106.643 16.016 107.296 16.24C107.968 16.464 108.631 16.716 109.284 16.996C109.956 17.276 110.563 17.64 111.104 18.088C111.664 18.536 112.112 19.1147 112.448 19.824C112.784 20.5147 112.952 21.3733 112.952 22.4C112.952 24.2293 112.308 25.6667 111.02 26.712C109.732 27.7573 107.968 28.28 105.728 28.28ZM117.553 28V8.848H121.221V28H117.553ZM114.389 17.696V14.476H124.385V17.696H114.389ZM131.776 28.28C130.544 28.28 129.433 27.972 128.444 27.356C127.455 26.74 126.68 25.9 126.12 24.836C125.56 23.772 125.28 22.5773 125.28 21.252C125.28 19.908 125.56 18.704 126.12 17.64C126.68 16.576 127.455 15.736 128.444 15.12C129.433 14.504 130.544 14.196 131.776 14.196C132.747 14.196 133.615 14.392 134.38 14.784C135.145 15.176 135.752 15.7267 136.2 16.436C136.667 17.1267 136.919 17.9107 136.956 18.788V23.66C136.919 24.556 136.667 25.3493 136.2 26.04C135.752 26.7307 135.145 27.2813 134.38 27.692C133.615 28.084 132.747 28.28 131.776 28.28ZM132.448 24.892C133.475 24.892 134.305 24.556 134.94 23.884C135.575 23.1933 135.892 22.3067 135.892 21.224C135.892 20.5147 135.743 19.8893 135.444 19.348C135.164 18.788 134.763 18.3587 134.24 18.06C133.736 17.7427 133.139 17.584 132.448 17.584C131.776 17.584 131.179 17.7427 130.656 18.06C130.152 18.3587 129.751 18.788 129.452 19.348C129.172 19.8893 129.032 20.5147 129.032 21.224C129.032 21.952 129.172 22.596 129.452 23.156C129.751 23.6973 130.152 24.1267 130.656 24.444C131.179 24.7427 131.776 24.892 132.448 24.892ZM135.696 28V24.36L136.284 21.056L135.696 17.808V14.476H139.336V28H135.696ZM146.837 28.112L141.181 14.476H145.157L148.909 24.892H147.565L151.457 14.476H155.461L149.441 28.112H146.837ZM143.085 33.656L147.201 24.948L149.441 28.112L146.977 33.656H143.085Z" fill="white"/>
</svg>
